<svg width="28" height="36" viewBox="0 0 28 36" fill="inherit" xmlns="http://www.w3.org/2000/svg">
<path d="M0.600343 36H11.1304C11.2429 36.0002 11.3532 35.9682 11.4487 35.9075C11.5443 35.8468 11.6212 35.76 11.6707 35.6568L13.8739 31.0545H27.3997C27.5589 31.0545 27.7116 30.9899 27.8242 30.875C27.9367 30.7601 28 30.6042 28 30.4417C28 30.2791 27.9367 30.1232 27.8242 30.0083C27.7116 29.8934 27.5589 29.8288 27.3997 29.8288H26.0069V17.5171C26.4708 17.3058 26.8649 16.9619 27.1414 16.5269C27.4179 16.0919 27.5651 15.5844 27.5651 15.0658C27.5651 14.5472 27.4179 14.0398 27.1414 13.6047C26.8649 13.1697 26.4708 12.8258 26.0069 12.6145V10.0468C26.0069 9.88422 25.9436 9.72835 25.831 9.61342C25.7184 9.49849 25.5657 9.43393 25.4065 9.43393C25.2473 9.43393 25.0946 9.49849 24.982 9.61342C24.8694 9.72835 24.8062 9.88422 24.8062 10.0468V12.3632H20.3636C20.2464 12.3651 20.1321 12.3262 20.0395 12.2529L17.0017 9.86903C17.0732 9.60751 17.1115 9.33771 17.1158 9.06623V8.84561C17.5279 8.4536 17.8567 7.97934 18.0818 7.45225C18.3069 6.92516 18.4236 6.35648 18.4245 5.78147V5.24831H19.9074C20.0666 5.24831 20.2193 5.18375 20.3319 5.06882C20.4445 4.95389 20.5077 4.79802 20.5077 4.63549C20.5077 4.47295 20.4445 4.31708 20.3319 4.20215C20.2193 4.08722 20.0666 4.02266 19.9074 4.02266H18.3705C18.3167 2.9265 17.848 1.8945 17.0634 1.14417C16.2787 0.393838 15.2393 -0.0161974 14.1643 0.000490088C13.0892 0.0171776 12.0625 0.459284 11.3005 1.23362C10.5386 2.00796 10.1009 3.05403 10.0798 4.15135V5.88565H6.4777C5.82222 5.88217 5.18224 6.08899 4.64815 6.4769C4.11406 6.86481 3.71285 7.4142 3.50119 8.04747C3.28953 8.68075 3.27813 9.3659 3.46858 10.0061C3.65904 10.6464 4.04173 11.2094 4.56261 11.6156C4.0985 12.1633 3.76555 12.8137 3.59005 13.5154L2.43739 18.277C2.30797 18.8108 2.2993 19.3676 2.41203 19.9052C2.52476 20.4429 2.75594 20.9473 3.08804 21.3802C3.42013 21.8131 3.84443 22.1632 4.32875 22.4038C4.81308 22.6444 5.34472 22.7693 5.88336 22.7691H5.9434L2.20926 34.7743H0.600343C0.441122 34.7743 0.288422 34.8389 0.175836 34.9538C0.0632498 35.0688 0 35.2246 0 35.3872C0 35.5497 0.0632498 35.7056 0.175836 35.8205C0.288422 35.9354 0.441122 36 0.600343 36ZM14.8165 29.8288H13.5017C13.3892 29.8286 13.2789 29.8607 13.1834 29.9213C13.0878 29.982 13.0109 30.0689 12.9614 30.172L10.7581 34.7743H10.0978L8.68096 32.7214L11.6827 26.3602C11.762 26.2021 11.8823 26.0694 12.0305 25.9764C12.1788 25.8835 12.3492 25.8339 12.5232 25.8332L15.6029 25.8761L14.8165 29.8288ZM24.9563 16.5121H24.422V13.5889H24.9563C25.1521 13.5759 25.3484 13.6041 25.5332 13.6717C25.7179 13.7393 25.8871 13.8449 26.0303 13.9819C26.1734 14.1189 26.2876 14.2844 26.3656 14.4682C26.4436 14.652 26.4838 14.8502 26.4838 15.0505C26.4838 15.2508 26.4436 15.449 26.3656 15.6328C26.2876 15.8166 26.1734 15.9821 26.0303 16.1191C25.8871 16.2561 25.7179 16.3617 25.5332 16.4293C25.3484 16.4968 25.1521 16.525 24.9563 16.5121ZM24.8062 17.7377V29.8288H22.1707L20.4717 27.4572L21.7564 23.6454C21.8341 23.4164 21.8667 23.174 21.8523 22.9321C21.8378 22.6902 21.7767 22.4536 21.6724 22.2359C21.5687 22.0057 21.4206 21.7991 21.237 21.6285C21.0534 21.458 20.8381 21.3269 20.6038 21.2431L16.7196 19.8765L17.3559 16.7204L18.1123 17.1923C18.713 17.571 19.4055 17.7706 20.1115 17.7684H24.8062V17.7377ZM19.307 13.2273C19.6117 13.4612 19.9824 13.588 20.3636 13.5889H23.2213V16.5121H20.1115C19.6255 16.5089 19.1498 16.369 18.7367 16.1076L17.2539 15.1884C17.1707 15.1364 17.0764 15.1059 16.9792 15.0995C16.8819 15.0931 16.7845 15.111 16.6955 15.1516C16.607 15.1911 16.5291 15.2519 16.4685 15.3287C16.4079 15.4055 16.3663 15.4961 16.3473 15.5928L15.5369 19.6681H13.3997L14.5343 14.5081C14.7017 13.7513 14.6303 12.9597 14.3302 12.2468C14.7409 12.195 15.1373 12.0599 15.4961 11.8494C15.8548 11.6389 16.1688 11.3573 16.4194 11.0211L19.307 13.2273ZM7.99657 11.205H10.9983C11.3654 11.1951 11.7298 11.2713 12.0635 11.4277C12.3972 11.5842 12.6913 11.8166 12.9232 12.1072C13.1551 12.3978 13.3187 12.7388 13.4013 13.1041C13.4839 13.4693 13.4833 13.849 13.3997 14.214L12.6492 17.6152H3.79417L4.7247 13.7911C4.90368 13.0462 5.32452 12.385 5.91866 11.9154C6.51279 11.4458 7.2452 11.1954 7.99657 11.205ZM14.2281 1.11785C14.9875 1.12037 15.7166 1.42191 16.2635 1.95964C16.8104 2.49736 17.1329 3.22979 17.1638 4.00427H11.2925C11.3234 3.22979 11.6459 2.49736 12.1928 1.95964C12.7397 1.42191 13.4688 1.12037 14.2281 1.11785ZM11.2804 5.76309V5.22993H17.1758V5.76309C17.1763 6.37118 16.9963 6.96516 16.6595 7.46675C16.3851 6.98271 15.9913 6.58041 15.5174 6.29981C15.0435 6.01922 14.5058 5.8701 13.958 5.86727H11.2864C11.2864 5.8305 11.2804 5.79986 11.2804 5.76309ZM6.4777 7.09292H13.958C14.4707 7.09292 14.9624 7.30082 15.3249 7.67089C15.6874 8.04096 15.8911 8.54288 15.8911 9.06623C15.8911 9.58958 15.6874 10.0915 15.3249 10.4616C14.9624 10.8316 14.4707 11.0395 13.958 11.0395H13.5678C13.2293 10.6984 12.8279 10.4291 12.3869 10.2471C11.9459 10.0651 11.4739 9.97412 10.9983 9.97934H7.99657C7.10161 9.98171 6.22775 10.257 5.48713 10.7699C5.11935 10.5505 4.83286 10.2132 4.67218 9.81053C4.51149 9.40782 4.48561 8.9622 4.59856 8.54293C4.71151 8.12366 4.95697 7.75422 5.29678 7.492C5.63659 7.22979 6.05174 7.0895 6.4777 7.09292ZM4.0223 20.5751C3.65231 20.0739 3.48861 19.445 3.56604 18.8224H12.3671L12.247 19.3556C12.1176 19.9669 11.7863 20.5141 11.3087 20.9057C10.8311 21.2974 10.2361 21.5095 9.6235 21.5066H5.85334C5.49614 21.5053 5.14371 21.4227 4.82176 21.2647C4.49981 21.1067 4.21643 20.8774 3.99228 20.5935L4.0223 20.5751ZM7.20412 22.7323H9.65352C10.3105 22.7359 10.9575 22.5691 11.534 22.2475C12.1105 21.9259 12.5975 21.4601 12.9494 20.8938H15.9511L20.2376 22.4014C20.3186 22.4291 20.3933 22.4733 20.4573 22.5312C20.5212 22.5891 20.5731 22.6596 20.6098 22.7384C20.6502 22.816 20.6739 22.9016 20.679 22.9894C20.6842 23.0772 20.6708 23.165 20.6398 23.2471L19.253 27.3653C19.2222 27.4583 19.2138 27.5575 19.2284 27.6546C19.243 27.7516 19.2803 27.8437 19.337 27.9229L20.6998 29.8288H16.0412L16.9417 25.4042C16.9607 25.3137 16.9595 25.22 16.938 25.13C16.9165 25.0401 16.8753 24.9563 16.8175 24.885C16.7597 24.8136 16.6869 24.7565 16.6044 24.718C16.5219 24.6795 16.432 24.6606 16.3413 24.6627L12.5352 24.6075C12.1323 24.6077 11.7374 24.7224 11.3949 24.9389C11.0524 25.1554 10.7757 25.4651 10.5961 25.8332L7.44425 32.513C7.39867 32.6104 7.37911 32.7184 7.38754 32.826C7.39597 32.9336 7.43211 33.0371 7.49228 33.1258L8.62693 34.7682H3.46998L7.20412 22.7323Z" fill="inherit"/>
</svg>
