<svg width="34" height="36" viewBox="0 0 34 36" fill="inherit" xmlns="http://www.w3.org/2000/svg">
<path d="M30.7241 5.27586H26.3793V2.7931C26.3793 1.24138 25.1379 0 23.5862 0H21.1034C19.5517 0 18.3103 1.24138 18.3103 2.7931V5.27586H13.9655C12.4138 5.27586 11.1724 6.51724 11.1724 8.06896V17.3793H8.06897C7.72759 17.3793 7.44828 17.6586 7.44828 18V19.8621H2.48276C1.11724 19.8621 0 20.9793 0 22.3448V33.5172C0 34.8828 1.11724 36 2.48276 36H20.4828C21.8483 36 22.9655 34.8828 22.9655 33.5172V33.2069H27V34.4483C27 35.3172 27.6828 36 28.5517 36H29.1724C30.0414 36 30.7241 35.3172 30.7241 34.4483V33.2069C32.2759 33.2069 33.5172 31.9655 33.5172 30.4138V8.06896C33.5172 6.51724 32.2759 5.27586 30.7241 5.27586ZM19.5517 2.7931C19.5517 1.92414 20.2345 1.24138 21.1034 1.24138H23.5862C24.4552 1.24138 25.1379 1.92414 25.1379 2.7931V5.27586H19.5517V2.7931ZM8.68966 18.6207H14.2759V19.8621H8.68966V18.6207ZM4.68621 34.7586H2.48276C1.8 34.7586 1.24138 34.2 1.24138 33.5172V22.3448C1.24138 21.6621 1.8 21.1034 2.48276 21.1034H4.71724V34.7586H4.68621ZM17.1 34.7586H5.86552V21.1034H15.8897C16.0448 22.0034 16.5103 22.9034 17.131 23.7724V34.7586H17.1ZM21.7241 33.5172C21.7241 34.2 21.1655 34.7586 20.4828 34.7586H18.2483V25.2C19.5828 26.6586 21.0724 27.8069 21.6931 28.2724V33.5172H21.7241ZM22.3448 27.1552C20.5759 25.8207 17.069 22.7172 17.069 20.4828C17.069 19.9241 17.2552 19.7379 17.8138 19.7379C19.0862 19.7379 21.2897 20.8862 22.0035 21.3207C22.1897 21.4448 22.469 21.4448 22.6552 21.3207C23.4 20.8862 25.5724 19.7379 26.8448 19.7379C27.4035 19.7379 27.5897 19.9241 27.5897 20.4828C27.6207 22.7172 24.1138 25.8207 22.3448 27.1552ZM29.4828 34.4483C29.4828 34.6034 29.3276 34.7586 29.1724 34.7586H28.5517C28.3966 34.7586 28.2414 34.6034 28.2414 34.4483V33.2069H29.4828V34.4483ZM32.2759 30.4138C32.2759 31.2828 31.5621 31.9655 30.7241 31.9655H22.9655V28.2724C24.2069 27.3414 28.8621 23.6793 28.8621 20.4828C28.8621 19.2414 28.1172 18.4655 26.8448 18.4655C25.2931 18.4655 23.1517 19.5828 22.3138 20.0483C21.5069 19.5828 19.3345 18.4655 17.7828 18.4655C16.7586 18.4655 16.0759 18.9931 15.8586 19.8621H15.5172V18C15.5172 17.6586 15.2379 17.3793 14.8966 17.3793H12.4138V14.2759H16.4483V16.4483C16.4483 16.7897 16.7276 17.069 17.069 17.069C17.4103 17.069 17.6897 16.7897 17.6897 16.4483V14.2759H27V16.4483C27 16.7897 27.2793 17.069 27.6207 17.069C27.9621 17.069 28.2414 16.7897 28.2414 16.4483V14.2759H32.2759V30.4138ZM32.2759 13.0345H12.4138V8.06896C12.4138 7.2 13.1276 6.51724 13.9655 6.51724H30.7241C31.5931 6.51724 32.2759 7.23103 32.2759 8.06896V13.0345Z" fill="inherit"/>
<path d="M26.6896 8.06908H17.9999C17.131 8.06908 16.4482 8.78287 16.4482 9.6208V10.2415C16.4482 11.1105 17.162 11.7932 17.9999 11.7932H26.6896C27.5586 11.7932 28.2413 11.0794 28.2413 10.2415V9.6208C28.2413 8.78287 27.5275 8.06908 26.6896 8.06908ZM26.9999 10.2415C26.9999 10.4277 26.8448 10.5518 26.6896 10.5518H17.9999C17.8137 10.5518 17.6896 10.3967 17.6896 10.2415V9.6208C17.6896 9.43459 17.8448 9.31045 17.9999 9.31045H26.6896C26.8758 9.31045 26.9999 9.46563 26.9999 9.6208V10.2415ZM8.5965 9.27942C8.19305 8.59666 7.6965 8.44149 7.32408 8.44149C6.0827 8.44149 4.87236 10.2415 4.31374 11.1415C3.04132 11.1725 1.05512 11.3587 0.465463 12.3829C0.279256 12.6932 0.155118 13.2208 0.527532 13.9036C1.76891 16.0449 6.48615 16.5415 7.01374 16.6036H7.07581C7.32408 16.6036 7.54133 16.4484 7.63443 16.2311C7.91374 15.7656 9.80684 11.4208 8.5965 9.27942ZM6.73443 15.3311C4.93443 15.0829 2.2965 14.4001 1.64477 13.3139C1.61374 13.2829 1.52064 13.0967 1.55167 13.0346C1.73788 12.7242 2.91719 12.4139 4.56202 12.4139H4.65512C4.90339 12.4139 5.0896 12.2898 5.21374 12.1036C5.83443 10.9863 6.85857 9.7139 7.32408 9.7139C7.38615 9.7139 7.51029 9.86907 7.51029 9.93114C8.16202 11.0174 7.41719 13.6553 6.73443 15.3311ZM7.60339 4.28287C7.19995 3.56908 6.02064 3.38287 4.9965 3.35183C4.56201 2.63804 3.75512 1.55183 2.88615 1.55183C2.63788 1.55183 2.20339 1.64494 1.86201 2.20356C0.993049 3.69321 2.20339 6.48632 2.45167 7.04494C2.54477 7.26218 2.76201 7.41735 3.01029 7.41735H3.07236C3.66201 7.35528 6.70339 7.0139 7.57236 5.52425C7.88271 4.93459 7.72753 4.50011 7.60339 4.28287ZM6.48615 4.87252C6.14477 5.49321 4.59305 5.9277 3.41374 6.1139C2.97926 4.99666 2.57581 3.44494 2.94822 2.82425C3.22753 2.97942 3.75512 3.63114 4.0965 4.28287C4.22064 4.46908 4.43788 4.59321 4.65512 4.59321H4.71719C5.61719 4.59321 6.26891 4.74839 6.48615 4.87252Z" fill="inherit"/>
</svg>
