<svg width="22" height="22" viewBox="0 0 22 22" fill="none" xmlns="http://www.w3.org/2000/svg">
<path d="M19.2767 2.67319L10.952 0.153545C10.2745 -0.044957 9.55896 0.0344437 8.93787 0.374102C8.31855 0.714643 7.86773 1.27486 7.67187 1.94624L7.18224 3.5766H2.64669C1.18748 3.5766 0 4.76408 0 6.22329V21.2203H14.1157V19.4162L16.8497 20.4316L21.0677 5.95156C21.4752 4.55058 20.668 3.07814 19.2767 2.67319ZM12.3512 19.4559H1.76446V6.22241C1.76446 5.7363 2.1597 5.34018 2.64669 5.34018H11.469C11.956 5.34018 12.3512 5.7363 12.3512 6.22241V19.4559ZM19.3738 5.45839L15.6861 18.1166L14.1157 17.5326V6.22241C14.1157 4.7632 12.9282 3.57572 11.469 3.57572H9.02521L9.36487 2.44646C9.43104 2.22061 9.58102 2.03446 9.78746 1.92065C9.99478 1.80684 10.233 1.78126 10.45 1.84478L18.7747 4.36443C19.2414 4.50029 19.5114 4.99169 19.3755 5.45839H19.3738Z" fill="#263238"/>
<path d="M9.17773 0.812988C9.68213 0.537149 10.2589 0.473192 10.8066 0.632324H10.8076L19.1318 3.15186L19.1367 3.15283C20.2613 3.48014 20.9188 4.67455 20.5879 5.81201L16.5195 19.7749L14.29 18.9478L13.6152 18.6968V20.7202H0.5V6.22314C0.500078 5.04021 1.46356 4.07677 2.64648 4.07666H7.55371L7.66113 3.72021L8.15039 2.09033L8.15234 2.08643C8.31058 1.544 8.673 1.08949 9.17676 0.812012L9.17773 0.812988ZM2.64648 4.84033C1.8832 4.84044 1.26478 5.46042 1.26465 6.22217V19.9556H12.8516V6.22217C12.8514 5.46035 12.2321 4.84033 11.4688 4.84033H2.64648ZM10.459 1.3335C10.1505 1.27609 9.82811 1.32761 9.54688 1.48193L9.5459 1.48291C9.22585 1.65941 8.98981 1.95045 8.88574 2.30225L8.54688 3.43213L8.35254 4.07568H11.4688C12.6517 4.07568 13.6151 5.03921 13.6152 6.22217V17.8804L13.9414 18.0015L15.5117 18.5854L16.0156 18.7729L16.166 18.2563L19.749 5.9585H19.751L19.8555 5.59814C20.0686 4.86617 19.6458 4.09729 18.9141 3.88428H18.9131L10.5947 1.3667V1.36572L10.5908 1.36475L10.459 1.3335Z" stroke="#666666" stroke-opacity="0.1"/>
</svg>
