<svg width="50" height="50" viewBox="0 0 50 50" fill="none" xmlns="http://www.w3.org/2000/svg">
<path d="M23.4375 6.25C22.5749 6.25052 21.8755 6.94987 21.875 7.8125C21.8755 8.67513 22.5749 9.37448 23.4375 9.37448H26.5625C26.9771 9.37448 27.3742 9.21016 27.6672 8.91719C27.9607 8.62422 28.125 8.22656 28.1255 7.8125C28.125 7.39792 27.9607 7.00078 27.6672 6.70781C27.3742 6.41484 26.9771 6.25 26.5625 6.25H23.4375Z" fill="inherit" fill-opacity="0.8"/>
<path d="M12.4995 0C9.92943 0 7.8125 2.11693 7.8125 4.6875V23.4375C7.8125 24.3002 8.51185 24.9995 9.37448 25C9.78906 25 10.1862 24.8352 10.4792 24.5422C10.7727 24.2492 10.9375 23.8521 10.9375 23.4375V4.6875C10.9375 3.80599 11.618 3.125 12.4995 3.125H37.5C38.3814 3.125 39.062 3.80599 39.062 4.6875V23.4375C39.0625 24.3002 39.7614 24.9995 40.624 25C41.0386 25 41.4362 24.8352 41.7292 24.5422C42.0222 24.2492 42.187 23.8521 42.187 23.4375V4.6875C42.187 2.11693 40.0701 0 37.5 0H12.4995Z" fill="inherit" fill-opacity="0.8"/>
<path d="M25 28.125C26.7445 28.125 28.1255 29.5055 28.1255 31.25C28.1255 32.9941 26.7447 34.375 25 34.375C23.2559 34.375 21.875 32.9941 21.875 31.25C21.875 29.5055 23.2559 28.125 25 28.125ZM25 25C21.5668 25 18.75 27.8168 18.75 31.25C18.75 34.6832 21.5668 37.5 25 37.5C28.4337 37.5 31.2505 34.6832 31.2505 31.25C31.2505 27.8168 28.4337 25 25 25Z" fill="inherit" fill-opacity="0.8"/>
<path d="M9.37501 31.25C11.1195 31.25 12.5 32.6305 12.5 34.375C12.5 36.1191 11.1195 37.5 9.37501 37.5C7.63047 37.5 6.25 36.1191 6.25 34.375C6.25 32.6305 7.63047 31.25 9.37501 31.25ZM9.37501 28.125C5.9418 28.125 3.125 30.9418 3.125 34.375C3.125 37.8082 5.9418 40.625 9.37501 40.625C12.8082 40.625 15.625 37.8082 15.625 34.375C15.625 30.9418 12.8082 28.125 9.37501 28.125Z" fill="inherit" fill-opacity="0.8"/>
<path d="M20.3125 39.062C17.7419 39.062 15.625 41.18 15.625 43.75V48.4375C15.625 48.8521 15.7898 49.2493 16.0828 49.5428C16.3758 49.8357 16.7734 50 17.188 50C17.6026 50 17.9997 49.8352 18.2927 49.5422C18.5857 49.2493 18.75 48.8516 18.75 48.4375V43.75C18.75 42.8685 19.431 42.187 20.3125 42.187H29.6875C30.569 42.187 31.2505 42.8685 31.2505 43.75V48.4375C31.25 48.8516 31.4149 49.2493 31.7078 49.5422C32.0008 49.8352 32.3979 50 32.8125 50C33.2271 50 33.6248 49.8357 33.9177 49.5428C34.2107 49.2493 34.3755 48.852 34.3755 48.4375V43.75C34.3755 41.18 32.2576 39.062 29.6875 39.062H20.3125Z" fill="inherit" fill-opacity="0.8"/>
<path d="M4.68803 42.187C2.11745 42.187 1.23046e-06 44.305 1.23046e-06 46.875V48.4375C-0.000519603 48.8521 0.164324 49.2493 0.457293 49.5427C0.750783 49.8357 1.14792 50 1.5625 50C1.97709 50 2.37474 49.8352 2.66771 49.5422C2.96068 49.2493 3.125 48.8516 3.125 48.4375V46.875C3.125 45.9935 3.80651 45.312 4.68803 45.312H10.938C11.8007 45.312 12.5 44.6127 12.5 43.75C12.5 43.3355 12.3357 42.9383 12.0427 42.6453C11.7498 42.3519 11.3526 42.1875 10.938 42.187H4.68803Z" fill="inherit" fill-opacity="0.8"/>
<path d="M40.626 31.25C38.8814 31.25 37.501 32.6305 37.501 34.375C37.501 36.1191 38.8814 37.5 40.626 37.5C42.3705 37.5 43.751 36.1191 43.751 34.375C43.751 32.6305 42.3705 31.25 40.626 31.25ZM40.626 28.125C44.0592 28.125 46.8755 30.9418 46.8755 34.375C46.8755 37.8082 44.0592 40.625 40.626 40.625C37.1928 40.625 34.376 37.8082 34.376 34.375C34.376 30.9418 37.1928 28.125 40.626 28.125Z" fill="inherit" fill-opacity="0.8"/>
<path d="M39.063 42.187C38.6484 42.1875 38.2512 42.3519 37.9583 42.6453C37.6653 42.9383 37.501 43.3356 37.501 43.75C37.501 44.6127 38.2003 45.312 39.063 45.312H45.313C46.1945 45.312 46.8755 45.9935 46.8755 46.875V48.4375C46.875 48.8521 47.0398 49.2493 47.3328 49.5427C47.6262 49.8357 48.0235 50 48.438 50C48.8524 50 49.2502 49.8352 49.5432 49.5422C49.8361 49.2493 50.0005 48.8516 50.0005 48.4375V46.875C50.0005 44.305 47.8835 42.187 45.313 42.187H39.063Z" fill="inherit" fill-opacity="0.8"/>
<path d="M15.6255 6.25C14.7628 6.25052 14.0635 6.94987 14.0635 7.8125C14.0635 8.67513 14.7628 9.37448 15.6255 9.37448H18.7505C19.6131 9.37448 20.3124 8.67513 20.313 7.8125C20.3125 6.94987 19.6131 6.25052 18.7505 6.25H15.6255Z" fill="inherit" fill-opacity="0.8"/>
<path d="M31.2505 6.25C30.8359 6.25 30.4383 6.41484 30.1453 6.70781C29.8523 7.00078 29.6875 7.39792 29.6875 7.8125C29.6875 8.22656 29.8523 8.62422 30.1453 8.91719C30.4383 9.21016 30.8361 9.37448 31.2505 9.37448H34.3755C35.2382 9.37448 35.9375 8.67513 35.9375 7.8125C35.9375 6.94987 35.2382 6.25052 34.3755 6.25H31.2505Z" fill="inherit" fill-opacity="0.8"/>
<path d="M23.4375 12.4995C23.0229 12.4995 22.6258 12.6644 22.3328 12.9573C22.0398 13.2508 21.875 13.648 21.875 14.0625C21.8755 14.9252 22.5749 15.6245 23.4375 15.6245H26.5625C26.9771 15.6245 27.3742 15.4602 27.6672 15.1672C27.9607 14.8743 28.125 14.4771 28.1255 14.0625C28.1255 13.648 27.9607 13.2503 27.6677 12.9573C27.3742 12.6644 26.977 12.4995 26.5625 12.4995H23.4375Z" fill="inherit" fill-opacity="0.8"/>
<path d="M15.6255 12.4995C15.2109 12.4995 14.8137 12.6644 14.5208 12.9573C14.2278 13.2508 14.0635 13.648 14.0635 14.0625C14.0635 14.9252 14.7628 15.6245 15.6255 15.6245H18.7505C19.6131 15.6245 20.3124 14.9252 20.313 14.0625C20.313 13.648 20.1481 13.2508 19.8551 12.9573C19.5622 12.6644 19.165 12.4995 18.7505 12.4995H15.6255Z" fill="inherit" fill-opacity="0.8"/>
<path d="M31.2505 12.4995C30.8359 12.4995 30.4383 12.6644 30.1453 12.9573C29.8518 13.2503 29.6875 13.648 29.6875 14.0625C29.6875 14.4771 29.8523 14.8743 30.1453 15.1672C30.4383 15.4602 30.8361 15.6245 31.2505 15.6245H34.3755C35.2382 15.6245 35.9375 14.9252 35.9375 14.0625C35.9375 13.648 35.7732 13.2508 35.4802 12.9573C35.1872 12.6644 34.79 12.4995 34.3755 12.4995H31.2505Z" fill="inherit" fill-opacity="0.8"/>
<path d="M23.4375 18.7495C23.0229 18.75 22.6258 18.9144 22.3328 19.2078C22.0398 19.5008 21.875 19.8979 21.875 20.3125C21.8755 21.1752 22.5749 21.8745 23.4375 21.8745H26.5625C26.9771 21.875 27.3742 21.7102 27.6672 21.4172C27.9607 21.1243 28.125 20.7271 28.1255 20.3125C28.1255 19.8979 27.9607 19.5003 27.6677 19.2073C27.3742 18.9144 26.977 18.7495 26.5625 18.7495H23.4375Z" fill="inherit" fill-opacity="0.8"/>
<path d="M15.6255 18.7495C15.2109 18.75 14.8137 18.9144 14.5208 19.2078C14.2278 19.5008 14.0635 19.8979 14.0635 20.3125C14.0635 21.1752 14.7628 21.8745 15.6255 21.8745H18.7505C19.6131 21.8745 20.3124 21.1752 20.313 20.3125C20.313 19.8979 20.1481 19.5008 19.8551 19.2078C19.5622 18.9144 19.165 18.75 18.7505 18.7495H15.6255Z" fill="inherit" fill-opacity="0.8"/>
<path d="M31.2505 18.7495C30.8359 18.7495 30.4383 18.9144 30.1453 19.2073C29.8518 19.5003 29.6875 19.8979 29.6875 20.3125C29.6875 20.7271 29.8523 21.1243 30.1453 21.4172C30.4383 21.7102 30.8361 21.875 31.2505 21.8745H34.3755C35.2382 21.8745 35.9375 21.1752 35.9375 20.3125C35.9375 19.8979 35.7732 19.5008 35.4802 19.2078C35.1872 18.9144 34.79 18.75 34.3755 18.7495H31.2505Z" fill="inherit" fill-opacity="0.8"/>
</svg>
