<svg width="31" height="36" viewBox="0 0 31 36" fill="inherit" xmlns="http://www.w3.org/2000/svg">
<path d="M23.02 7.97744H7.91507L0 15.8925L15.4675 36L30.9351 15.8925L23.02 7.97744ZM9.13054 16.6801L13.5921 31.1831L2.43674 16.6801H9.13054ZM20.2873 16.6801L15.4675 32.3434L10.6477 16.6801H20.2873ZM10.9465 15.2297L14.4261 9.42788H16.5075L19.9871 15.2297H10.9465ZM21.8045 16.6801H28.4983L17.3429 31.1831L21.8045 16.6801ZM28.2213 15.2297H21.6798L18.1987 9.42788H22.4195L28.2213 15.2297ZM8.51555 9.42788H12.7363L9.25528 15.2297H2.71378L8.51555 9.42788ZM14.7423 0H16.1927V4.35133H14.7423V0ZM22.2048 0.934086L23.2303 1.95955L20.3294 4.86044L19.3054 3.83352L22.2048 0.934086ZM8.72732 0.935536L11.6282 3.83642L10.6013 4.86044L7.7004 1.95955L8.72732 0.935536Z" fill="inherit"/>
</svg>
