<svg width="50" height="57" viewBox="0 0 50 57" fill="none" xmlns="http://www.w3.org/2000/svg">
<path d="M12.0877 27.8264H10.9888C9.77498 27.8264 8.79102 28.8112 8.79102 30.0261C8.79102 31.241 9.77498 32.2259 10.9888 32.2259H12.0877C13.3016 32.2259 14.2856 31.241 14.2856 30.0261C14.2856 28.8112 13.3016 27.8264 12.0877 27.8264ZM33.7363 19.0273H19.7801C18.5663 19.0273 17.5823 20.0122 17.5823 21.2271C17.5823 22.442 18.5663 23.4268 19.7801 23.4268H33.7363C34.9501 23.4268 35.9341 22.442 35.9341 21.2271C35.9341 20.0122 34.9501 19.0273 33.7363 19.0273Z" fill="inherit" fill-opacity="0.8"/>
<path d="M30.2078 51.9142H8.79128C6.36753 51.9142 4.39564 49.9405 4.39564 47.5146V8.79901C4.39564 6.37312 6.36753 4.3995 8.79128 4.3995H35.8123C38.236 4.3995 40.2079 6.37312 40.2079 8.79901V21.2276C40.2079 22.4425 41.1919 23.4274 42.4057 23.4274C43.6196 23.4274 44.6036 22.4425 44.6036 21.2276V8.79901C44.6036 3.94724 40.6598 0 35.8123 0H8.79128C3.94377 0 0 3.94724 0 8.79901V47.5146C0 52.3664 3.94377 56.3137 8.79128 56.3137H30.2078C31.4217 56.3137 32.4057 55.3288 32.4057 54.1139C32.4057 52.899 31.4217 51.9142 30.2078 51.9142Z" fill="inherit" fill-opacity="0.8"/>
<path d="M12.0877 36.6257H10.9888C9.77498 36.6257 8.79102 37.6105 8.79102 38.8254C8.79102 40.0403 9.77498 41.0252 10.9888 41.0252H12.0877C13.3016 41.0252 14.2856 40.0403 14.2856 38.8254C14.2856 37.6105 13.3016 36.6257 12.0877 36.6257ZM33.7363 10.2286H19.7801C18.5663 10.2286 17.5823 11.2135 17.5823 12.4284C17.5823 13.6433 18.5663 14.6281 19.7801 14.6281H33.7363C34.9501 14.6281 35.9341 13.6433 35.9341 12.4284C35.9341 11.2135 34.9501 10.2286 33.7363 10.2286ZM43.8061 39.5903H41.7922C40.8072 39.5903 40.0059 38.7739 40.0059 37.7705V37.4732C40.0059 36.4884 40.7738 35.7458 41.7922 35.7458H43.6966C44.2564 35.7458 44.8353 36.1208 44.8353 36.7484C44.8353 37.9633 45.8192 38.9482 47.0331 38.9482C48.247 38.9482 49.2309 37.9633 49.2309 36.7484C49.2309 34.1121 47.2858 31.9123 44.7232 31.441V30.0264C44.7232 28.8115 43.7392 27.8267 42.5254 27.8267C41.3115 27.8267 40.3275 28.8115 40.3275 30.0264V31.5165C39.2398 31.7734 38.2434 32.3162 37.4353 33.1077C36.2584 34.2603 35.6103 35.8108 35.6103 37.4732V37.7705C35.6103 41.1998 38.3834 43.9898 41.7922 43.9898H43.8061C44.7977 43.9898 45.6045 44.7938 45.6045 45.782V46.8269C45.6045 47.7831 44.8314 48.5043 43.8061 48.5043H40.533C39.9135 48.5043 39.4462 48.0604 39.4462 47.4716C39.4462 46.2567 38.4623 45.2719 37.2484 45.2719C36.0345 45.2719 35.0506 46.2567 35.0506 47.4716C35.0506 48.945 35.6275 50.3201 36.6751 51.3438C37.6562 52.3024 38.9465 52.8494 40.3275 52.899V54.1137C40.3275 55.3286 41.3115 56.3134 42.5254 56.3134C43.7392 56.3134 44.7232 55.3286 44.7232 54.1137V52.8397C47.7464 52.4169 50.0002 49.9281 50.0002 46.8269V45.782C50.0002 42.3679 47.2216 39.5903 43.8061 39.5903ZM29.3406 41.0252C30.5545 41.0252 31.5385 40.0403 31.5385 38.8254C31.5385 37.6105 30.5545 36.6257 29.3406 36.6257H19.7801C18.5663 36.6257 17.5823 37.6105 17.5823 38.8254C17.5823 40.0403 18.5663 41.0252 19.7801 41.0252H29.3406ZM12.0877 19.0276H10.9888C9.77498 19.0276 8.79102 20.0125 8.79102 21.2274C8.79102 22.4423 9.77498 23.4271 10.9888 23.4271H12.0877C13.3016 23.4271 14.2856 22.4423 14.2856 21.2274C14.2856 20.0125 13.3016 19.0276 12.0877 19.0276ZM35.9341 30.0264C35.9341 28.8115 34.9501 27.8267 33.7363 27.8267H19.7801C18.5663 27.8267 17.5823 28.8115 17.5823 30.0264C17.5823 31.2413 18.5663 32.2262 19.7801 32.2262H33.7363C34.9501 32.2262 35.9341 31.2413 35.9341 30.0264ZM12.0877 10.2286H10.9888C9.77498 10.2286 8.79102 11.2135 8.79102 12.4284C8.79102 13.6433 9.77498 14.6281 10.9888 14.6281H12.0877C13.3016 14.6281 14.2856 13.6433 14.2856 12.4284C14.2856 11.2135 13.3016 10.2286 12.0877 10.2286Z" fill="inherit" fill-opacity="0.8"/>
</svg>
