<svg width="36" height="26" viewBox="0 0 36 26" fill="inherit" xmlns="http://www.w3.org/2000/svg">
<g clip-path="url(#clip0_2003_12458)">
<path d="M8.91369 4.32322e-07C8.02067 -0.000388938 7.14759 0.262244 6.40491 0.754675C5.66223 1.24711 5.0833 1.94721 4.74138 2.76642C4.39945 3.58564 4.30989 4.48715 4.48401 5.35692C4.65814 6.22669 5.08812 7.02564 5.71959 7.65269C6.35105 8.27975 7.15561 8.70674 8.03149 8.87965C8.90737 9.05256 9.81522 8.96362 10.6402 8.62407C11.4652 8.28454 12.1702 7.70965 12.6661 6.97215C13.162 6.23465 13.4264 5.36767 13.426 4.48088C13.4239 3.29311 12.9479 2.15459 12.1021 1.31472C11.2563 0.474842 10.1098 0.0020824 8.91369 4.32322e-07ZM8.91369 7.58756C8.29532 7.58795 7.69072 7.40624 7.17635 7.06542C6.66197 6.72459 6.26093 6.23995 6.02393 5.67279C5.78692 5.10562 5.72461 4.48141 5.84486 3.87908C5.96512 3.27674 6.26254 2.72335 6.69951 2.28887C7.13649 1.85439 7.69339 1.55835 8.29981 1.43817C8.90622 1.31799 9.5349 1.37908 10.1063 1.61371C10.6778 1.84833 11.1663 2.24597 11.5102 2.75632C11.8541 3.26667 12.0378 3.86682 12.0382 4.48088C12.0372 5.30382 11.7078 6.09282 11.1222 6.6751C10.5365 7.25738 9.74241 7.58548 8.91369 7.58756ZM26.3683 4.32322e-07C25.4755 0.0003899 24.6028 0.263685 23.8606 0.75659C23.1185 1.24949 22.5402 1.94987 22.1989 2.76915C21.8575 3.58843 21.7685 4.48982 21.9431 5.35933C22.1177 6.22885 22.548 7.02742 23.1796 7.65409C23.8112 8.28075 24.6158 8.70735 25.4916 8.87993C26.3673 9.05252 27.275 8.96335 28.0997 8.6237C28.9245 8.28404 29.6292 7.70916 30.125 6.97174C30.6207 6.23432 30.8851 5.3675 30.8847 4.48088C30.8826 3.29243 30.4059 2.15332 29.5593 1.31333C28.7127 0.473341 27.5651 0.0010411 26.3683 4.32322e-07ZM26.3683 7.58756C25.7501 7.58717 25.1459 7.4048 24.6321 7.0635C24.1182 6.7222 23.7178 6.23729 23.4814 5.67006C23.245 5.10283 23.1833 4.47873 23.304 3.87666C23.4247 3.27459 23.7224 2.72156 24.1595 2.28748C24.5967 1.85339 25.1536 1.55774 25.7599 1.43788C26.3662 1.31802 26.9947 1.37934 27.5659 1.61408C28.1371 1.84883 28.6254 2.24646 28.9691 2.75673C29.3128 3.26699 29.4965 3.86699 29.4969 4.48088C29.4958 5.3045 29.1659 6.09409 28.5794 6.67648C27.9929 7.25888 27.1978 7.58652 26.3683 7.58756ZM35.9165 23.3848L34.4652 15.6161C34.1557 13.9639 33.2738 12.4712 31.9724 11.3969C30.6711 10.3225 29.0322 9.73402 27.3398 9.7335H25.4008C24.25 9.73822 23.1166 10.0132 22.0932 10.5361C21.0699 11.0589 20.1856 11.8147 19.5126 12.7418C18.6866 12.4752 17.7999 12.456 16.963 12.6866C16.1382 11.0526 14.8575 10.0918 13.4379 10.0918H4.36961C2.12533 10.0918 0 13.2103 0 16.5099V26.3891C0.000734524 26.9894 0.241181 27.5648 0.668599 27.9893C1.09602 28.4137 1.67551 28.6525 2.27997 28.6532C2.55197 28.6529 2.82178 28.6049 3.07697 28.5114L2.51391 41.1036C2.47949 41.8583 2.69036 42.6041 3.11541 43.2308C3.54045 43.8574 4.15714 44.3318 4.87443 44.5837C5.59172 44.8357 6.3716 44.852 7.09892 44.6302C7.82625 44.4084 8.46248 43.9602 8.91369 43.3519C9.21293 43.7578 9.59671 44.0949 10.0389 44.3402C10.4811 44.5856 10.9714 44.7335 11.4763 44.7738C11.9812 44.8142 12.489 44.7461 12.965 44.5741C13.4411 44.4021 13.8742 44.1303 14.2349 43.7771C14.4532 44.0546 14.7254 44.2857 15.0353 44.4568C15.3452 44.628 15.6865 44.7356 16.0391 44.7733C16.455 44.8133 16.8745 44.7561 17.2642 44.6064C17.6538 44.4566 18.0029 44.2185 18.2834 43.911C18.5705 44.2299 18.9318 44.4744 19.3357 44.6232C19.7396 44.772 20.1741 44.8205 20.6012 44.7646C21.0283 44.7087 21.4353 44.5501 21.7866 44.3025C22.138 44.055 22.4231 43.7259 22.6173 43.344C22.7575 43.6942 22.9828 44.0046 23.2731 44.2474C23.5634 44.4901 23.9097 44.6578 24.2811 44.7354C24.6525 44.813 25.0374 44.7981 25.4016 44.692C25.7658 44.586 26.0979 44.392 26.3683 44.1276C26.68 44.4317 27.0721 44.6418 27.4992 44.7334C27.9263 44.825 28.3708 44.7944 28.781 44.6451C29.1913 44.4958 29.5505 44.234 29.8169 43.8901C30.0833 43.5462 30.2459 43.1343 30.2859 42.7022L31.2812 31.8741H33.5175C33.6164 31.8739 33.7141 31.8529 33.8041 31.8123C33.8942 31.7718 33.9745 31.7127 34.0397 31.6389C34.105 31.5652 34.1537 31.4785 34.1826 31.3846C34.2115 31.2907 34.22 31.1918 34.2075 31.0944L33.7792 27.846C34.5641 27.4216 35.1935 26.7614 35.5774 25.9601C35.9613 25.1587 36.08 24.2572 35.9165 23.3848ZM18.1406 13.9073C18.759 13.9076 19.3634 14.0901 19.8773 14.4316C20.3912 14.7731 20.7917 15.2582 21.0279 15.8257C21.2642 16.3931 21.3257 17.0174 21.2047 17.6196C21.0837 18.2218 20.7856 18.7748 20.348 19.2087C19.9105 19.6427 19.3532 19.938 18.7467 20.0574C18.1401 20.1768 17.5115 20.115 16.9403 19.8796C16.3692 19.6443 15.8811 19.246 15.5379 18.7352C15.1947 18.2244 15.0117 17.6241 15.0121 17.01C15.0123 16.6023 15.0933 16.1985 15.2506 15.8219C15.408 15.4453 15.6385 15.1031 15.929 14.815C16.2195 14.5268 16.5644 14.2984 16.9439 14.1426C17.3234 13.9869 17.73 13.9069 18.1406 13.9073ZM22.7799 33.1341C22.7799 33.2034 22.7661 33.272 22.7394 33.336C22.7127 33.4 22.6736 33.4582 22.6242 33.5072C22.5749 33.5561 22.5163 33.595 22.4519 33.6215C22.3874 33.648 22.3183 33.6617 22.2485 33.6617C22.0646 33.6619 21.8882 33.7346 21.7581 33.8637C21.628 33.9929 21.5548 34.1681 21.5546 34.3508V42.0446C21.5634 42.3723 21.4501 42.6917 21.2364 42.9416C21.0228 43.1916 20.7238 43.3545 20.3968 43.3991C20.2175 43.4177 20.0363 43.3986 19.8649 43.3431C19.6935 43.2876 19.5357 43.197 19.4019 43.077C19.2681 42.9571 19.1611 42.8106 19.0879 42.647C19.0148 42.4834 18.9771 42.3063 18.9773 42.1273V34.9453C18.9773 34.7626 18.9042 34.5873 18.774 34.4581C18.6439 34.3288 18.4674 34.2563 18.2834 34.2563C18.0993 34.2563 17.9228 34.3288 17.7927 34.4581C17.6626 34.5873 17.5895 34.7626 17.5895 34.9453V42.1273C17.5902 42.3061 17.5529 42.4831 17.4802 42.6467C17.4075 42.8102 17.3009 42.9568 17.1673 43.0768C17.0338 43.1967 16.8764 43.2874 16.7052 43.343C16.534 43.3985 16.353 43.4176 16.1739 43.3991C15.8464 43.3547 15.5469 43.192 15.3326 42.9421C15.1183 42.6923 15.0042 42.3727 15.0121 42.0446V34.3508C15.0123 34.2602 14.9945 34.1705 14.9597 34.0868C14.9249 34.0031 14.8738 33.9271 14.8093 33.863C14.7449 33.799 14.6683 33.7483 14.584 33.7137C14.4997 33.6792 14.4094 33.6615 14.3182 33.6617H14.0287C13.8881 33.661 13.7533 33.6051 13.6538 33.5064C13.5544 33.4076 13.4981 33.2738 13.4974 33.1341V28.1807C13.496 27.7832 13.548 27.3872 13.6521 27.0034C13.9375 25.9185 14.6115 24.9743 15.5478 24.3477C16.4842 23.721 17.6185 23.455 18.7382 23.5994C19.8579 23.7438 20.8862 24.2888 21.6302 25.1322C22.3742 25.9755 22.783 27.0594 22.7799 28.1807V33.1341ZM25.6744 42.4935C25.6742 42.7357 25.5772 42.9679 25.4048 43.1392C25.2323 43.3105 24.9984 43.4068 24.7545 43.407C24.525 43.4054 24.3043 43.3197 24.1345 43.1664C23.9647 43.013 23.8579 42.8029 23.8346 42.5762L23.1209 34.8272C23.4348 34.6673 23.6985 34.4248 23.8831 34.1262C24.0677 33.8276 24.1661 33.4844 24.1677 33.1341V31.8741H25.6744V42.4935ZM28.9021 42.5762C28.8801 42.8104 28.7682 43.0273 28.5895 43.1818C28.4109 43.3363 28.1791 43.4166 27.9425 43.4059C27.7058 43.3953 27.4823 43.2946 27.3184 43.1247C27.1545 42.9548 27.0628 42.7288 27.0622 42.4935V31.8741H29.8894L28.9021 42.5762ZM33.5175 26.3694L31.3288 15.5492C31.2925 15.3701 31.186 15.2126 31.0329 15.1115C30.8797 15.0103 30.6923 14.9737 30.5119 15.0098C30.3316 15.0458 30.173 15.1515 30.0711 15.3036C29.9693 15.4557 29.9324 15.6418 29.9687 15.8209C29.9885 15.9272 30.0084 16.0178 30.0242 16.0926C30.024 16.0993 30.0253 16.1061 30.0282 16.1123C30.0282 16.1201 30.0322 16.1319 30.0322 16.1398C30.0324 16.1428 30.0339 16.1456 30.0361 16.1477C30.0355 16.1545 30.0369 16.1613 30.0401 16.1674C30.0401 16.1792 30.044 16.191 30.044 16.2028C30.048 16.2068 30.048 16.2107 30.048 16.2186C30.048 16.2264 30.052 16.2383 30.0559 16.2501C30.0599 16.2776 30.0678 16.3013 30.0718 16.3328C30.0718 16.3406 30.0758 16.3485 30.0758 16.3564C30.0786 16.3625 30.08 16.3693 30.0797 16.3761C30.0839 16.3888 30.0866 16.4021 30.0877 16.4154C30.0892 16.417 30.0903 16.4189 30.091 16.4209C30.0917 16.4229 30.0919 16.4251 30.0916 16.4273C30.2661 17.2935 30.8173 20.0222 32.3438 27.5704L32.7285 30.4959H24.1677V28.1807C24.1677 26.5928 23.5325 25.07 22.4018 23.9473C21.2711 22.8245 19.7376 22.1937 18.1386 22.1937C16.5396 22.1937 15.0061 22.8245 13.8755 23.9473C12.7448 25.07 12.1096 26.5928 12.1096 28.1807V33.1341C12.1102 33.5695 12.2608 33.9917 12.5363 34.3304C12.8118 34.6692 13.1957 34.9042 13.6243 34.9965C13.6322 42.4069 13.6124 42.0446 13.6402 42.3203C13.4055 42.7324 13.04 43.0556 12.6007 43.2395C12.1614 43.4233 11.6731 43.4574 11.2122 43.3363C10.7513 43.2153 10.3438 42.9459 10.0535 42.5704C9.76314 42.1949 9.60634 41.7345 9.60759 41.2611V27.4404C9.60759 27.2577 9.53448 27.0824 9.40435 26.9532C9.27422 26.824 9.09772 26.7514 8.91369 26.7514C8.72965 26.7514 8.55316 26.824 8.42302 26.9532C8.29289 27.0824 8.21978 27.2577 8.21978 27.4404V41.2729C8.219 41.5586 8.16076 41.8412 8.04848 42.1043C7.9362 42.3673 7.77214 42.6054 7.56593 42.8046C7.35972 43.0038 7.11551 43.1601 6.84764 43.2644C6.57977 43.3686 6.29364 43.4186 6.00603 43.4115C5.71842 43.4045 5.43513 43.3404 5.1728 43.2231C4.91046 43.1058 4.67435 42.9377 4.47834 42.7286C4.28232 42.5195 4.13034 42.2736 4.03133 42.0054C3.93231 41.7371 3.88824 41.4519 3.90172 41.1666L4.55201 26.5821C4.55201 26.5388 4.55597 18.5693 4.55994 16.1516C4.55994 15.9689 4.48683 15.7936 4.3567 15.6644C4.22657 15.5352 4.05007 15.4626 3.86603 15.4626C3.682 15.4626 3.5055 15.5352 3.37537 15.6644C3.24524 15.7936 3.17213 15.9689 3.17213 16.1516L3.1642 26.5033C3.13555 26.7269 3.02214 26.9312 2.84707 27.0746C2.672 27.218 2.44845 27.2898 2.22196 27.2752C1.99548 27.2607 1.78311 27.1609 1.62812 26.9963C1.47313 26.8316 1.38719 26.6145 1.38781 26.3891V16.5099C1.38781 13.8443 3.05714 11.4699 4.36961 11.4699H13.4379C14.2825 11.4699 15.1152 12.1393 15.6941 13.2497C14.8708 13.7782 14.242 14.5574 13.9019 15.4704C13.6115 16.2545 13.5476 17.1035 13.7173 17.9218C13.887 18.74 14.2835 19.4949 14.8622 20.1012C15.4409 20.7076 16.1787 21.1413 16.9924 21.3535C17.8061 21.5656 18.6633 21.5478 19.4673 21.3019C20.2713 21.0561 20.9902 20.592 21.5428 19.9621C22.0953 19.3322 22.4597 18.5615 22.5947 17.7369C22.7297 16.9123 22.6299 16.0667 22.3067 15.2954C21.9836 14.5241 21.4498 13.8578 20.7656 13.3718C21.3153 12.6709 22.0182 12.1033 22.8212 11.7118C23.6242 11.3202 24.5063 11.115 25.4008 11.1116H27.3398C28.7079 11.1133 30.0324 11.5895 31.0844 12.458C32.1364 13.3265 32.8498 14.5327 33.1012 15.8681L34.5524 23.6368C34.6464 24.1427 34.5997 24.6644 34.4173 25.1459C34.235 25.6274 33.9239 26.0504 33.5175 26.3694Z" fill="inherit"/>
<path d="M14.6512 16.1516V25.1409C14.1769 25.6761 13.8347 26.3138 13.652 27.0034C13.5352 26.9482 13.4366 26.8612 13.3677 26.7524C13.2989 26.6436 13.2627 26.5176 13.2634 26.3891V16.1516C13.2629 15.9788 13.3286 15.8123 13.4471 15.6858C13.5657 15.5593 13.7282 15.4823 13.9018 15.4704C13.9195 15.4637 13.9385 15.461 13.9573 15.4626C14.0485 15.4624 14.1389 15.48 14.2231 15.5146C14.3074 15.5491 14.384 15.5999 14.4485 15.6639C14.5129 15.7279 14.5641 15.804 14.5989 15.8877C14.6336 15.9714 14.6515 16.0611 14.6512 16.1516Z" fill="inherit"/>
</g>
<defs>
<clipPath id="clip0_2003_12458">
<rect width="36" height="25.2" fill="white"/>
</clipPath>
</defs>
</svg>
