<svg width="22" height="21" viewBox="0 0 22 21" fill="none" xmlns="http://www.w3.org/2000/svg">
<path d="M20.9424 9L11.8249 1.32207C11.5779 1.11407 11.2653 1 10.9424 1C10.6195 1 10.3069 1.11407 10.0599 1.32207L0.942383 9" stroke="inherit" stroke-width="1.5" stroke-linecap="round" stroke-linejoin="round"/>
<path d="M19.4424 8V14.5C19.4424 16.8456 19.4424 18.0184 18.8225 18.8263C18.6629 19.0343 18.4767 19.2205 18.2687 19.3801C17.4608 20 16.288 20 13.9424 20V15.5C13.9424 14.0858 13.9424 13.3787 13.5031 12.9393C13.0637 12.5 12.3566 12.5 10.9424 12.5C9.52818 12.5 8.82106 12.5 8.38172 12.9393C7.94238 13.3787 7.94238 14.0858 7.94238 15.5V20C5.5968 20 4.42402 20 3.6161 19.3801C3.4081 19.2205 3.22192 19.0343 3.06232 18.8263C2.44238 18.0184 2.44238 16.8456 2.44238 14.5V8" stroke="inherit" stroke-width="1.5" stroke-linecap="round" stroke-linejoin="round"/>
</svg>
