<svg width="36" height="30" viewBox="0 0 36 30" fill="inherit" xmlns="http://www.w3.org/2000/svg">
<path d="M35.0674 5.92706L23.3139 0.050625C23.1508 -0.016875 22.9742 -0.016875 22.8111 0.050625L11.0576 5.92706C10.7767 6.0664 10.5405 6.28163 10.3756 6.54837C10.2108 6.81511 10.124 7.12269 10.125 7.43625V8.991C10.125 10.2319 11.1341 11.241 12.375 11.241H16.875C17.55 11.241 18.1496 10.9361 18.5625 10.4636C18.9754 10.9361 19.575 11.241 20.25 11.241H22.5V21.366H3.9375C2.69662 21.366 1.6875 22.3751 1.6875 23.616V24.1785H0.5625C0.413316 24.1785 0.270242 24.2378 0.164752 24.3432C0.0592632 24.4487 0 24.5918 0 24.741L0 26.991C0 27.1402 0.0592632 27.2833 0.164752 27.3887C0.270242 27.4942 0.413316 27.5535 0.5625 27.5535H3.375V28.6785C3.375 28.8277 3.43426 28.9708 3.53975 29.0762C3.64524 29.1817 3.78831 29.241 3.9375 29.241C4.08668 29.241 4.22976 29.1817 4.33525 29.0762C4.44074 28.9708 4.5 28.8277 4.5 28.6785V27.5535H28.125V28.6785C28.125 28.8277 28.1843 28.9708 28.2897 29.0762C28.3952 29.1817 28.5383 29.241 28.6875 29.241C28.8367 29.241 28.9798 29.1817 29.0852 29.0762C29.1907 28.9708 29.25 28.8277 29.25 28.6785V27.5535H32.625C32.7742 27.5535 32.9173 27.4942 33.0227 27.3887C33.1282 27.2833 33.1875 27.1402 33.1875 26.991V26.3947L34.974 28.9974C35.0158 29.0583 35.0692 29.1103 35.1312 29.1505C35.1931 29.1907 35.2624 29.2183 35.335 29.2318C35.4076 29.2452 35.4821 29.2442 35.5544 29.2288C35.6266 29.2134 35.695 29.1839 35.7559 29.142C35.8788 29.0575 35.9631 28.9277 35.9903 28.7811C36.0175 28.6345 35.9854 28.4831 35.901 28.3601L31.8409 22.4454L34.7844 19.7387C35.168 19.3851 35.3958 18.8939 35.4177 18.3727C35.4396 17.8514 35.254 17.3428 34.9014 16.9582C34.7271 16.7672 34.5165 16.6128 34.282 16.5039C34.0474 16.3949 33.7935 16.3337 33.5351 16.3237C33.0114 16.2911 32.5074 16.4852 32.1204 16.8412L27.1969 21.366H23.625V11.241H25.875C26.55 11.241 27.1496 10.9361 27.5625 10.4636C27.9754 10.9361 28.575 11.241 29.25 11.241H33.75C34.9909 11.241 36 10.2319 36 8.991V7.43625C36.001 7.12269 35.9142 6.81511 35.7494 6.54837C35.5845 6.28163 35.3483 6.0664 35.0674 5.92706ZM32.0625 26.4285H1.125V25.3035H32.0625V26.4285ZM31.6659 24.1785H29.9559L31.0039 23.2144L31.6659 24.1785ZM27.4162 22.491C27.5571 22.4909 27.6928 22.4379 27.7965 22.3425L32.8815 17.6692C33.0464 17.5182 33.2645 17.4387 33.4879 17.4482C33.7113 17.4577 33.9219 17.5554 34.0734 17.7199C34.2242 17.8846 34.3036 18.1024 34.2941 18.3255C34.2846 18.5486 34.187 18.7588 34.0228 18.9101L28.2937 24.1785H2.8125V23.616C2.8125 22.9956 3.31706 22.491 3.9375 22.491H27.4162ZM34.8592 7.3035H27.8775L24.5756 1.93894L34.5639 6.93337C34.6373 6.96964 34.7018 7.0216 34.7528 7.08556C34.8038 7.14952 34.8402 7.22393 34.8592 7.3035ZM26.5556 7.3035H19.5694L23.0625 1.62675L26.5556 7.3035ZM11.5611 6.93337L21.5494 1.93894L18.2475 7.3035H11.2657C11.2848 7.22393 11.3212 7.14952 11.3722 7.08556C11.4232 7.0216 11.4877 6.96964 11.5611 6.93337ZM16.875 10.116H12.375C11.7546 10.116 11.25 9.61144 11.25 8.991V8.4285H18V8.991C18 9.61144 17.4954 10.116 16.875 10.116ZM25.875 10.116H20.25C19.6296 10.116 19.125 9.61144 19.125 8.991V8.4285H27V8.991C27 9.61144 26.4954 10.116 25.875 10.116ZM34.875 8.991C34.875 9.61144 34.3704 10.116 33.75 10.116H29.25C28.6296 10.116 28.125 9.61144 28.125 8.991V8.4285H34.875V8.991Z" fill="inherit"/>
</svg>
