<svg width="24" height="22" viewBox="0 0 24 22" fill="none" xmlns="http://www.w3.org/2000/svg">
<path d="M6.39732 1.17354C10.622 1.64295 11.6782 3.71618 11.6782 4.69411L12.8517 3.52059C14.7293 1.17355 16.7634 0.977958 17.5458 1.17354C25.0563 3.05118 23.0222 8.21468 21.0663 10.5617L12.2649 19.3632C11.8737 18.7764 10.0352 16.664 5.81056 12.9088C0.529709 8.21468 1.11647 0.586783 6.39732 1.17354Z" fill="#FF395C"/>
<path d="M12.3821 17.9002L12.2648 18.0153L12.1357 17.9002C6.56145 12.9388 2.87659 9.65806 2.87659 6.33127C2.87659 4.02899 4.63687 2.30228 6.98392 2.30228C8.79114 2.30228 10.5514 3.45342 11.1734 5.01897H13.3561C13.9781 3.45342 15.7384 2.30228 17.5456 2.30228C19.8927 2.30228 21.653 4.02899 21.653 6.33127C21.653 9.65806 17.9681 12.9388 12.3821 17.9002ZM17.5456 0C15.5037 0 13.5439 0.932423 12.2648 2.39437C10.9856 0.932423 9.02585 0 6.98392 0C3.36947 0 0.529541 2.77425 0.529541 6.33127C0.529541 10.6711 4.51952 14.2281 10.5632 19.6039L12.2648 21.1234L13.9664 19.6039C20.01 14.2281 24 10.6711 24 6.33127C24 2.77425 21.1601 0 17.5456 0Z" fill="white"/>
</svg>
