<svg width="60" height="45" viewBox="0 0 60 45" fill="none" xmlns="http://www.w3.org/2000/svg">
<path d="M0 0V45H60V0H0ZM58.8 43.8H1.2V1.2H58.8V43.8Z" fill="inherit" fill-opacity="0.8"/>
<path d="M21 10.65H9V22.65H21V10.65ZM19.8 21.45H10.2V11.85H19.8V21.45Z" fill="inherit" fill-opacity="0.8"/>
<path d="M51 10.65H39V22.65H51V10.65ZM49.8 21.45H40.2V11.85H49.8V21.45Z" fill="inherit" fill-opacity="0.8"/>
<path d="M46.5 25.65C46.5 24.8217 45.8283 24.15 45 24.15C44.1717 24.15 43.5 24.8217 43.5 25.65C43.5 26.4783 44.1717 27.15 45 27.15C45.8283 27.15 46.5 26.4783 46.5 25.65ZM44.4 25.65C44.4 25.3191 44.6691 25.05 45 25.05C45.3309 25.05 45.6 25.3191 45.6 25.65C45.6 25.9809 45.3309 26.25 45 26.25C44.6691 26.25 44.4 25.9809 44.4 25.65Z" fill="inherit" fill-opacity="0.8"/>
<path d="M30 27.15C30.8284 27.15 31.5 26.4785 31.5 25.65C31.5 24.8216 30.8284 24.15 30 24.15C29.1716 24.15 28.5 24.8216 28.5 25.65C28.5 26.4785 29.1716 27.15 30 27.15Z" fill="inherit" fill-opacity="0.8"/>
<path d="M16.5 25.65C16.5 24.8217 15.8283 24.15 15 24.15C14.1717 24.15 13.5 24.8217 13.5 25.65C13.5 26.4783 14.1717 27.15 15 27.15C15.8283 27.15 16.5 26.4783 16.5 25.65ZM14.4 25.65C14.4 25.3191 14.6691 25.05 15 25.05C15.3309 25.05 15.6 25.3191 15.6 25.65C15.6 25.9809 15.3309 26.25 15 26.25C14.6691 26.25 14.4 25.9809 14.4 25.65Z" fill="inherit" fill-opacity="0.8"/>
<path d="M19.5 30.45H10.5V31.65H19.5V30.45Z" fill="inherit" fill-opacity="0.8"/>
<path d="M18 33.15H12V34.35H18V33.15Z" fill="inherit" fill-opacity="0.8"/>
<path d="M34.5 30.45H25.5V31.65H34.5V30.45Z" fill="inherit" fill-opacity="0.8"/>
<path d="M33 33.15H27V34.35H33V33.15Z" fill="inherit" fill-opacity="0.8"/>
<path d="M49.5 30.45H40.5V31.65H49.5V30.45Z" fill="inherit" fill-opacity="0.8"/>
<path d="M48 33.15H42V34.35H48V33.15Z" fill="inherit" fill-opacity="0.8"/>
<path d="M36 10.65H24V22.65H36V10.65ZM28.9977 19.1847L26.7825 16.9695L27.6324 16.1193L28.9977 17.4846L32.3667 14.1156L33.2172 14.9655L28.9977 19.1847Z" fill="inherit" fill-opacity="0.8"/>
</svg>
