<svg width="22" height="23" viewBox="0 0 22 23" fill="none" xmlns="http://www.w3.org/2000/svg">
<g clip-path="url(#clip0_2003_16027)">
<path d="M15.8098 9.64263C16.2525 10.0762 16.8346 10.2925 17.4167 10.2925C17.9988 10.2925 18.5808 10.0762 19.0227 9.64263L20.6571 8.04396C21.5155 7.18383 21.9976 6.01828 21.9976 4.80309C21.9976 3.5879 21.5155 2.42235 20.6571 1.56221C19.7918 0.696881 18.6404 0.220215 17.4167 0.220215C16.1929 0.220215 15.0416 0.696881 14.1753 1.56221C13.3166 2.4241 12.835 3.59159 12.8364 4.80827C12.8377 6.02496 13.3219 7.19136 14.1827 8.0513L15.8098 9.64263ZM15.4715 2.8593C15.9913 2.33955 16.6815 2.05355 17.4167 2.05355C18.1518 2.05355 18.8421 2.33955 19.3609 2.85838C19.8755 3.37285 20.1652 4.07028 20.1665 4.79791C20.1679 5.52554 19.8809 6.22406 19.3683 6.74046L17.7412 8.3318C17.6544 8.41646 17.5379 8.46384 17.4167 8.46384C17.2954 8.46384 17.179 8.41646 17.0922 8.3318L15.4724 6.7478C14.9577 6.23147 14.6687 5.53214 14.6687 4.80309C14.6687 4.07403 14.9577 3.37471 15.4724 2.85838L15.4715 2.8593ZM3.66667 20.3869C3.67219 20.631 3.62888 20.8738 3.53928 21.101C3.44968 21.3282 3.31559 21.5351 3.1449 21.7098C2.9742 21.8844 2.77034 22.0232 2.54527 22.118C2.3202 22.2128 2.07847 22.2616 1.83426 22.2617C1.59005 22.2617 1.3483 22.213 1.12318 22.1183C0.898067 22.0237 0.694131 21.885 0.523349 21.7104C0.352566 21.5359 0.218379 21.329 0.128665 21.1018C0.038951 20.8747 -0.00448157 20.6319 0.000917322 20.3878C0.0115099 19.9088 0.209206 19.4529 0.551686 19.1179C0.894166 18.7828 1.35421 18.5951 1.83334 18.595C2.31248 18.5949 2.77262 18.7823 3.11526 19.1172C3.45791 19.4521 3.65584 19.9079 3.66667 20.3869ZM13.2917 14.8869C13.2972 15.131 13.2539 15.3738 13.1643 15.601C13.0747 15.8282 12.9406 16.0351 12.7699 16.2098C12.5992 16.3844 12.3953 16.5232 12.1703 16.618C11.9452 16.7128 11.7035 16.7616 11.4593 16.7617C11.2151 16.7617 10.9733 16.713 10.7482 16.6183C10.5231 16.5237 10.3191 16.385 10.1483 16.2104C9.97757 16.0359 9.84338 15.829 9.75367 15.6018C9.66395 15.3747 9.62052 15.1319 9.62592 14.8878C9.63651 14.4088 9.83421 13.9529 10.1767 13.6179C10.5192 13.2828 10.9792 13.0951 11.4583 13.095C11.9375 13.0949 12.3976 13.2823 12.7403 13.6172C13.0829 13.9521 13.2808 14.4079 13.2917 14.8869ZM1.83333 12.1369C1.83333 10.1147 3.47783 8.47021 5.5 8.47021H11.9167C12.1598 8.47021 12.3929 8.56679 12.5648 8.7387C12.7368 8.91061 12.8333 9.14377 12.8333 9.38688C12.8333 9.63 12.7368 9.86315 12.5648 10.0351C12.3929 10.207 12.1598 10.3035 11.9167 10.3035H5.5C4.48892 10.3035 3.66667 11.1258 3.66667 12.1369C3.66667 13.148 4.48892 13.9702 5.5 13.9702H7.33333C7.57645 13.9702 7.80961 14.0668 7.98152 14.2387C8.15342 14.4106 8.25 14.6438 8.25 14.8869C8.25 15.13 8.15342 15.3632 7.98152 15.5351C7.80961 15.707 7.57645 15.8035 7.33333 15.8035H5.5C3.47783 15.8035 1.83333 14.159 1.83333 12.1369ZM22 17.6369C22 19.659 20.3555 21.3035 18.3333 21.3035H6.41667C6.17355 21.3035 5.9404 21.207 5.76849 21.0351C5.59658 20.8632 5.5 20.63 5.5 20.3869C5.5 20.1438 5.59658 19.9106 5.76849 19.7387C5.9404 19.5668 6.17355 19.4702 6.41667 19.4702H18.3333C19.3444 19.4702 20.1667 18.648 20.1667 17.6369C20.1667 16.6258 19.3444 15.8035 18.3333 15.8035H15.5833C15.3402 15.8035 15.1071 15.707 14.9352 15.5351C14.7632 15.3632 14.6667 15.13 14.6667 14.8869C14.6667 14.6438 14.7632 14.4106 14.9352 14.2387C15.1071 14.0668 15.3402 13.9702 15.5833 13.9702H18.3333C20.3555 13.9702 22 15.6147 22 17.6369ZM18.3343 4.6083C18.3343 4.85141 18.2377 5.08457 18.0658 5.25648C17.8939 5.42839 17.6607 5.52496 17.4176 5.52496C17.1745 5.52496 16.9413 5.42839 16.7694 5.25648C16.5975 5.08457 16.5009 4.85141 16.5009 4.6083C16.5009 4.36518 16.5975 4.13203 16.7694 3.96012C16.9413 3.78821 17.1745 3.69163 17.4176 3.69163C17.6607 3.69163 17.8939 3.78821 18.0658 3.96012C18.2377 4.13203 18.3343 4.36518 18.3343 4.6083Z" fill="#263238"/>
</g>
<defs>
<clipPath id="clip0_2003_16027">
<rect width="22" height="22" fill="white" transform="translate(0 0.220215)"/>
</clipPath>
</defs>
</svg>
