<svg width="22" height="23" viewBox="0 0 22 23" fill="none" xmlns="http://www.w3.org/2000/svg">
<path fill-rule="evenodd" clip-rule="evenodd" d="M17.3103 13.3098C17.4275 13.1078 17.6174 12.9581 17.8413 12.8914C18.0651 12.8247 18.3059 12.8459 18.5146 12.9507C18.7233 13.0555 18.8842 13.236 18.9643 13.4554C19.0444 13.6748 19.0377 13.9165 18.9457 14.1311L18.898 14.2265L18.5909 14.7581C18.7741 14.973 18.9231 15.2148 19.0327 15.475L19.0933 15.6299H19.7083C19.942 15.6301 20.1667 15.7196 20.3366 15.88C20.5065 16.0404 20.6087 16.2596 20.6224 16.4928C20.6361 16.7261 20.5602 16.9557 20.4103 17.1349C20.2603 17.3141 20.0476 17.4292 19.8156 17.4568L19.7083 17.4632H19.0933C19.0035 17.7175 18.8769 17.9571 18.7174 18.1745L18.5909 18.334L18.898 18.8666C19.0159 19.0692 19.0517 19.3092 18.9981 19.5374C18.9444 19.7655 18.8055 19.9645 18.6097 20.0933C18.414 20.2222 18.1763 20.2712 17.9455 20.2302C17.7148 20.1893 17.5085 20.0615 17.369 19.8731L17.3103 19.7833L17.0032 19.2516C16.7347 19.3011 16.4624 19.3094 16.1966 19.2791L15.9977 19.2498L15.6897 19.7833C15.5725 19.9853 15.3826 20.135 15.1587 20.2017C14.9349 20.2684 14.6941 20.2472 14.4854 20.1424C14.2767 20.0376 14.1158 19.8571 14.0357 19.6377C13.9556 19.4183 13.9623 19.1766 14.0543 18.962L14.102 18.8666L14.4091 18.334C14.226 18.1198 14.077 17.8786 13.9672 17.619L13.9067 17.4632H13.2917C13.058 17.463 12.8333 17.3735 12.6634 17.2131C12.4935 17.0527 12.3913 16.8335 12.3776 16.6003C12.3639 16.367 12.4398 16.1374 12.5897 15.9582C12.7397 15.779 12.9524 15.6639 13.1844 15.6363L13.2917 15.6299H13.9077C13.9974 15.3756 14.124 15.136 14.2835 14.9185L14.4091 14.759L14.102 14.2265C13.9841 14.0239 13.9483 13.7839 14.0019 13.5557C14.0556 13.3276 14.1945 13.1286 14.3903 12.9998C14.586 12.8709 14.8237 12.8219 15.0545 12.8629C15.2852 12.9038 15.4915 13.0316 15.631 13.22L15.6897 13.3098L15.9967 13.8415C16.2653 13.792 16.5376 13.7837 16.8034 13.814L17.0023 13.8424L17.3103 13.3098ZM10.0833 11.9632C10.4934 11.9632 10.8955 11.9846 11.2897 12.0274C11.5314 12.053 11.7531 12.1737 11.906 12.3628C12.0588 12.5519 12.1302 12.7939 12.1046 13.0357C12.0789 13.2775 11.9583 13.4992 11.7692 13.652C11.5801 13.8048 11.338 13.8763 11.0962 13.8506C10.7656 13.8146 10.428 13.7965 10.0833 13.7965C8.22892 13.7965 6.56058 14.3374 5.37533 15.0606C4.78225 15.4218 4.33492 15.8141 4.04617 16.1808C3.74917 16.5566 3.66667 16.8408 3.66667 17.0049C3.66667 17.1167 3.70058 17.235 3.90042 17.3954C4.12867 17.5787 4.52558 17.7685 5.13242 17.9289C6.34058 18.2497 8.07675 18.3799 10.0833 18.3799L10.6865 18.3753C10.9296 18.372 11.1641 18.4654 11.3383 18.635C11.5125 18.8046 11.6123 19.0365 11.6155 19.2796C11.6188 19.5227 11.5254 19.7572 11.3558 19.9314C11.1862 20.1056 10.9544 20.2054 10.7112 20.2086L10.0833 20.2132C8.04008 20.2132 6.10958 20.0849 4.66308 19.7017C3.9435 19.511 3.26608 19.2379 2.75275 18.8254C2.20917 18.389 1.83333 17.7795 1.83333 17.0049C1.83333 16.2835 2.1615 15.6088 2.607 15.0441C3.05983 14.4712 3.68592 13.9441 4.42017 13.495C5.88958 12.6003 7.88792 11.9632 10.0833 11.9632ZM16.5 15.6299C16.2569 15.6299 16.0237 15.7265 15.8518 15.8984C15.6799 16.0703 15.5833 16.3034 15.5833 16.5465C15.5833 16.7897 15.6799 17.0228 15.8518 17.1947C16.0237 17.3666 16.2569 17.4632 16.5 17.4632C16.7431 17.4632 16.9763 17.3666 17.1482 17.1947C17.3201 17.0228 17.4167 16.7897 17.4167 16.5465C17.4167 16.3034 17.3201 16.0703 17.1482 15.8984C16.9763 15.7265 16.7431 15.6299 16.5 15.6299ZM10.0833 1.87988C11.2989 1.87988 12.4647 2.36277 13.3242 3.22231C14.1838 4.08185 14.6667 5.24764 14.6667 6.46322C14.6667 7.67879 14.1838 8.84458 13.3242 9.70412C12.4647 10.5637 11.2989 11.0465 10.0833 11.0465C8.86776 11.0465 7.70197 10.5637 6.84243 9.70412C5.98288 8.84458 5.5 7.67879 5.5 6.46322C5.5 5.24764 5.98288 4.08185 6.84243 3.22231C7.70197 2.36277 8.86776 1.87988 10.0833 1.87988ZM10.0833 3.71322C9.7222 3.71322 9.3646 3.78435 9.03095 3.92255C8.69731 4.06075 8.39415 4.26331 8.13879 4.51867C7.88343 4.77403 7.68086 5.07719 7.54266 5.41084C7.40446 5.74448 7.33333 6.10208 7.33333 6.46322C7.33333 6.82435 7.40446 7.18195 7.54266 7.5156C7.68086 7.84924 7.88343 8.1524 8.13879 8.40776C8.39415 8.66312 8.69731 8.86568 9.03095 9.00388C9.3646 9.14209 9.7222 9.21322 10.0833 9.21322C10.8127 9.21322 11.5122 8.92348 12.0279 8.40776C12.5436 7.89204 12.8333 7.19256 12.8333 6.46322C12.8333 5.73387 12.5436 5.0344 12.0279 4.51867C11.5122 4.00295 10.8127 3.71322 10.0833 3.71322Z" fill="#263238"/>
</svg>
